<?xml version="1.0" encoding="UTF-8"?>
<svg id="Layer_2" data-name="Layer 2" xmlns="http://www.w3.org/2000/svg" viewBox="0 0 586.82 373.61">
  <defs>
    <style>
      .cls-1, .cls-2, .cls-3 {
        fill: #904aff;
      }

      .cls-2 {
        font-size: 97.85px;
      }

      .cls-2, .cls-3 {
        font-family: HelveticaNeueLTStd-Roman, 'Helvetica Neue LT Std';
      }

      .cls-4 {
        letter-spacing: -.02em;
      }

      .cls-3 {
        font-size: 37.25px;
        letter-spacing: .05em;
      }

      .cls-5 {
        letter-spacing: .04em;
      }
    </style>
  </defs>
  <g id="Layer_1-2" data-name="Layer 1">
    <g>
      <path class="cls-1" d="M8.76,0h49.25l85.24,227.31L228.87,0h49.25v270.5h-34.1V45.46h-.76l-84.48,225.03h-30.69L43.62,45.46h-.76v225.03H8.76V0Z"/>
      <path class="cls-1" d="M407.69,0h39.78l105.7,270.5h-39.78l-29.55-81.45h-114.41l-30.31,81.45h-37.13L407.69,0ZM427.39,32.58h-.76l-45.84,126.16h91.68"/>
    </g>
    <path class="cls-1" d="M221.08,104.57s21.56-60.69,22.95,0c.87,38.2,4.4-74.76,4.4-74.76l-26.8,20.05-.55,54.71Z"/>
    <path class="cls-1" d="M65.92,104.86s-23.06-59.39-23.11-.3c-.03,38.21-4.01-74.74-4.01-74.74l26.8,20.05.32,54.99Z"/>
    <path class="cls-1" d="M132,197.3s3.33,9.43,6.59,12.41c4.63,4.23,10.31,2.7,16.35-13.43l1.63,33.34-24.57,3.18v-35.5Z"/>
    <path class="cls-1" d="M438.14,62.7s-10.56-37.03-22.55,0l-2.01-32.32,24.57-3.18v35.5Z"/>
    <path class="cls-1" d="M384.47,148.61s-4.96,10.13,8.92,10.13c.1,0-11.95,6.36-11.95,6.36l-8-9.45,11.03-7.04Z"/>
    <path class="cls-1" d="M470.33,152.75s2.7,5.99-2.55,5.99c-.1,0,4.12,6.36,4.12,6.36l8-9.45-9.57-2.9Z"/>
    <path class="cls-1" d="M366.25,197.58s2.46-8.53,15.48-8.53l-14.55-6"/>
    <path class="cls-1" d="M486.92,197.58s-2.46-8.53-15.48-8.53l14.55-6"/>
    <g>
      <text class="cls-2" transform="translate(0 352.67)"><tspan x="0" y="0">space fo</tspan><tspan class="cls-4" x="376.9" y="0">r </tspan><tspan x="431.79" y="0">a</tspan><tspan class="cls-5" x="484.33" y="0">r</tspan><tspan x="521.32" y="0">t</tspan></text>
      <text class="cls-3" transform="translate(557.03 303.35)"><tspan x="0" y="0">®</tspan></text>
    </g>
  </g>
</svg>