<?xml version="1.0" encoding="UTF-8"?>
<svg id="Layer_2" data-name="Layer 2" xmlns="http://www.w3.org/2000/svg" width="447.36" height="110.22" viewBox="0 0 447.36 110.22">
  <g id="Layer_1-2" data-name="Layer 1">
    <g>
      <polygon points="447.36 0 348.7 0 326.77 16.53 326.77 0 228.11 0 228.11 110.22 326.77 110.22 326.77 93.68 348.7 110.22 447.36 110.22 447.36 63.37 425.43 46.84 447.36 46.84 447.36 0" fill="#fff"/>
      <line x1="348.7" y1="110.22" x2="326.77" y2="93.68" fill="#fff"/>
      <line x1="326.77" y1="16.53" x2="348.7" fill="#fff"/>
      <line x1="425.43" y1="46.84" x2="447.36" y2="63.37" fill="#fff"/>
    </g>
    <g>
      <polygon points="219.42 .11 120.68 .11 120.68 16.61 98.74 .11 0 .11 0 46.86 21.94 63.36 0 63.36 0 110.1 98.74 110.1 98.74 93.61 120.68 110.1 219.42 110.1 219.42 63.36 197.48 46.86 219.42 46.86 219.42 .11" fill="#fff"/>
      <line x1="120.68" y1="110.1" x2="98.74" y2="93.61" fill="#fff"/>
      <line x1="98.74" y1=".11" x2="120.68" y2="16.61" fill="#fff"/>
      <line x1="21.94" y1="63.36" y2="46.86" fill="#fff"/>
      <line x1="197.48" y1="46.86" x2="219.42" y2="63.36" fill="#fff"/>
    </g>
  </g>
</svg>